<?xml version="1.0" encoding="UTF-8"?>
<svg xmlns="http://www.w3.org/2000/svg" xmlns:xlink="http://www.w3.org/1999/xlink" width="20px" height="20px" viewBox="0 0 20 20" version="1.1">
<g id="surface1">
<path style=" stroke:none;fill-rule:nonzero;fill:#C4C4C4;fill-opacity:1;" d="M 19.160156 0.0625 C 19.097656 0.0976562 17.996094 1.167969 16.71875 2.445312 L 14.394531 4.765625 L 13.964844 4.554688 C 10.65625 2.921875 7.480469 3.300781 4.082031 5.746094 C 2.78125 6.679688 1.171875 8.253906 0.199219 9.542969 C -0.00390625 9.808594 -0.046875 10.027344 0.0585938 10.238281 C 0.152344 10.421875 0.765625 11.175781 1.277344 11.738281 C 2.171875 12.714844 3.339844 13.753906 4.285156 14.402344 L 4.566406 14.597656 L 2.359375 16.800781 C 1.144531 18.011719 0.117188 19.070312 0.0742188 19.148438 C -0.0195312 19.335938 -0.0195312 19.496094 0.078125 19.6875 C 0.167969 19.863281 0.390625 20 0.585938 20 C 0.652344 20 0.769531 19.964844 0.851562 19.925781 C 1.03125 19.828125 19.851562 1.003906 19.9375 0.832031 C 20.175781 0.351562 19.632812 -0.183594 19.160156 0.0625 Z M 10.96875 6.015625 C 11.148438 6.0625 11.421875 6.152344 11.574219 6.214844 C 11.859375 6.332031 12.421875 6.664062 12.421875 6.710938 C 12.421875 6.726562 12.238281 6.921875 12.015625 7.144531 L 11.609375 7.550781 L 11.402344 7.433594 C 10.824219 7.105469 10.085938 6.996094 9.421875 7.132812 C 7.882812 7.449219 6.859375 8.921875 7.109375 10.460938 C 7.164062 10.78125 7.238281 11.011719 7.40625 11.34375 L 7.542969 11.617188 L 7.140625 12.019531 C 6.921875 12.242188 6.726562 12.421875 6.710938 12.421875 C 6.664062 12.421875 6.332031 11.859375 6.214844 11.574219 C 5.980469 11.007812 5.917969 10.667969 5.921875 9.980469 C 5.925781 9.476562 5.941406 9.296875 6.007812 9.0625 C 6.222656 8.269531 6.578125 7.632812 7.105469 7.109375 C 7.710938 6.5 8.558594 6.070312 9.394531 5.9375 C 9.773438 5.878906 10.597656 5.921875 10.96875 6.015625 Z M 10.96875 6.015625 "/>
<path style=" stroke:none;fill-rule:nonzero;fill:#C4C4C4;fill-opacity:1;" d="M 15.121094 7.359375 L 13.859375 8.621094 L 13.941406 8.878906 C 14.359375 10.238281 13.941406 11.847656 12.894531 12.894531 C 11.847656 13.941406 10.238281 14.359375 8.878906 13.941406 L 8.621094 13.859375 L 7.679688 14.800781 C 7.164062 15.316406 6.753906 15.75 6.765625 15.761719 C 6.8125 15.808594 7.660156 16.09375 8.039062 16.191406 C 8.789062 16.378906 9.144531 16.421875 10.019531 16.421875 C 10.691406 16.417969 10.925781 16.402344 11.308594 16.332031 C 12.703125 16.078125 14.066406 15.503906 15.429688 14.597656 C 16.863281 13.640625 18.304688 12.308594 19.53125 10.800781 C 20.152344 10.039062 20.152344 9.960938 19.53125 9.199219 C 18.628906 8.089844 17.257812 6.726562 16.480469 6.171875 L 16.382812 6.097656 Z M 15.121094 7.359375 "/>
<path style=" stroke:none;fill-rule:nonzero;fill:#C4C4C4;fill-opacity:1;" d="M 11.234375 11.246094 C 9.980469 12.5 9.617188 12.886719 9.667969 12.90625 C 9.882812 12.988281 10.660156 12.890625 11.070312 12.730469 C 11.894531 12.40625 12.597656 11.617188 12.832031 10.746094 C 12.90625 10.476562 12.953125 9.761719 12.90625 9.675781 C 12.875 9.621094 12.570312 9.910156 11.234375 11.246094 Z M 11.234375 11.246094 "/>
</g>
</svg>
