<?xml version="1.0" encoding="UTF-8"?>
<svg xmlns="http://www.w3.org/2000/svg" xmlns:xlink="http://www.w3.org/1999/xlink" width="24px" height="24px" viewBox="0 0 24 24" version="1.1">
<g id="surface1">
<path style=" stroke:none;fill-rule:nonzero;fill:#ffffff;fill-opacity:1;" d="M 1.523438 0.0664062 C 0.828125 0.238281 0.253906 0.8125 0.0664062 1.519531 C 0.015625 1.714844 0 3.320312 0 10.992188 C 0 21.101562 -0.015625 20.511719 0.265625 21 C 0.441406 21.289062 0.789062 21.628906 1.058594 21.765625 C 1.1875 21.824219 2.699219 22.351562 4.429688 22.925781 L 7.570312 23.976562 L 7.992188 23.976562 C 8.507812 23.976562 8.796875 23.882812 9.1875 23.597656 C 9.5 23.367188 9.753906 23.019531 9.890625 22.625 C 9.964844 22.410156 9.984375 22.242188 9.984375 21.679688 L 9.984375 21 L 11.757812 21 C 13.09375 21 13.597656 20.980469 13.832031 20.933594 C 14.804688 20.726562 15.664062 19.890625 15.914062 18.914062 C 16.015625 18.507812 16.015625 13.613281 15.914062 13.40625 C 15.765625 13.117188 15.375 12.941406 15.054688 13.027344 C 14.839844 13.085938 14.59375 13.332031 14.53125 13.550781 C 14.503906 13.644531 14.484375 14.6875 14.484375 16.125 L 14.484375 18.539062 L 14.371094 18.777344 C 14.3125 18.90625 14.175781 19.085938 14.0625 19.1875 C 13.707031 19.492188 13.640625 19.5 11.710938 19.5 L 9.984375 19.5 L 9.976562 11.492188 L 9.960938 3.492188 L 9.816406 3.183594 C 9.488281 2.492188 9.167969 2.273438 7.847656 1.832031 L 6.867188 1.503906 L 10.152344 1.503906 C 13.804688 1.5 13.683594 1.492188 14.0625 1.8125 C 14.175781 1.914062 14.3125 2.09375 14.371094 2.222656 L 14.484375 2.460938 L 14.484375 4.875 C 14.484375 6.359375 14.503906 7.355469 14.53125 7.460938 C 14.597656 7.691406 14.886719 7.949219 15.136719 7.992188 C 15.382812 8.035156 15.726562 7.875 15.875 7.644531 L 15.984375 7.484375 L 15.984375 4.925781 C 15.984375 2.105469 15.984375 2.085938 15.6875 1.5 C 15.589844 1.304688 15.414062 1.070312 15.183594 0.835938 C 14.898438 0.539062 14.75 0.4375 14.433594 0.285156 C 14.21875 0.183594 13.914062 0.078125 13.761719 0.0507812 C 13.339844 -0.0273438 1.835938 -0.015625 1.523438 0.0664062 Z M 5.1875 2.535156 C 7.789062 3.402344 8.3125 3.589844 8.390625 3.6875 C 8.484375 3.8125 8.484375 3.867188 8.484375 12.992188 L 8.484375 22.179688 L 8.324219 22.339844 C 8.21875 22.449219 8.125 22.5 8.03125 22.5 C 7.902344 22.5 1.964844 20.546875 1.75 20.433594 C 1.695312 20.40625 1.613281 20.316406 1.570312 20.230469 C 1.5 20.101562 1.496094 19.335938 1.507812 10.941406 C 1.523438 1.867188 1.523438 1.789062 1.617188 1.6875 C 1.71875 1.570312 1.851562 1.507812 1.992188 1.503906 C 2.042969 1.5 3.484375 1.964844 5.1875 2.535156 Z M 5.1875 2.535156 "/>
<path style=" stroke:none;fill-rule:nonzero;fill:#ffffff;fill-opacity:1;" d="M 19.195312 6.066406 C 19.003906 6.148438 18.804688 6.390625 18.769531 6.585938 C 18.695312 6.988281 18.703125 7.003906 20.125 8.421875 L 21.445312 9.75 L 13.570312 9.75 L 13.386719 9.859375 C 12.875 10.144531 12.890625 10.894531 13.410156 11.15625 C 13.585938 11.246094 13.703125 11.25 17.515625 11.25 L 21.445312 11.25 L 20.125 12.570312 C 18.699219 14 18.695312 14.011719 18.773438 14.421875 C 18.816406 14.652344 19.097656 14.933594 19.328125 14.976562 C 19.753906 15.054688 19.6875 15.113281 21.859375 12.945312 C 22.964844 11.84375 23.898438 10.890625 23.933594 10.820312 C 24.019531 10.65625 24.019531 10.34375 23.933594 10.179688 C 23.828125 9.984375 19.917969 6.101562 19.765625 6.046875 C 19.589844 5.980469 19.367188 5.992188 19.195312 6.066406 Z M 19.195312 6.066406 "/>
</g>
</svg>
