<svg width="16" height="12" viewBox="0 0 16 12" fill="none" xmlns="http://www.w3.org/2000/svg">
<path fill-rule="evenodd" clip-rule="evenodd" d="M2.14416 6C2.52926 6.5311 3.31851 7.53185 4.3578 8.40315C5.4354 9.30657 6.69722 10 8.00001 10C9.3028 10 10.5646 9.30657 11.6422 8.40314C12.6815 7.53185 13.4708 6.5311 13.8559 6C13.4708 5.4689 12.6815 4.46816 11.6422 3.59686C10.5646 2.69344 9.3028 2.00001 8.00001 2.00001C6.69722 2.00001 5.4354 2.69344 4.3578 3.59686C3.31851 4.46816 2.52926 5.4689 2.14416 6ZM3.50119 2.5751C4.67567 1.59046 6.23753 0.666672 8.00001 0.666672C9.76249 0.666672 11.3243 1.59046 12.4988 2.5751C13.6847 3.56929 14.5621 4.6981 14.9676 5.26201C15.2865 5.70559 15.2865 6.29442 14.9676 6.738C14.5621 7.30191 13.6847 8.43071 12.4988 9.42491C11.3243 10.4096 9.76249 11.3333 8.00001 11.3333C6.23753 11.3333 4.67567 10.4096 3.50119 9.42491C2.31532 8.43072 1.43788 7.30191 1.03246 6.738C0.713546 6.29442 0.713546 5.70559 1.03246 5.26201C1.43788 4.6981 2.31532 3.56929 3.50119 2.5751Z" fill="#64748B"/>
<path fill-rule="evenodd" clip-rule="evenodd" d="M8.00001 7.33334C8.73639 7.33334 9.33334 6.73638 9.33334 6C9.33334 5.26363 8.73639 4.66667 8.00001 4.66667C7.26363 4.66667 6.66667 5.26363 6.66667 6C6.66667 6.73638 7.26363 7.33334 8.00001 7.33334ZM8.00001 8.66667C9.47277 8.66667 10.6667 7.47276 10.6667 6C10.6667 4.52725 9.47277 3.33334 8.00001 3.33334C6.52725 3.33334 5.33334 4.52725 5.33334 6C5.33334 7.47276 6.52725 8.66667 8.00001 8.66667Z" fill="#64748B"/>
</svg>
